<?xml version="1.0" encoding="UTF-8"?>
<svg version="1.1" xmlns="http://www.w3.org/2000/svg" width="512" height="512">
    <path
        d="M0 0 C3.80717136 2.83389807 7.65504908 5.61020509 11.50732422 8.38232422 C12.61454834 9.18017334 12.61454834 9.18017334 13.74414062 9.99414062 C15.23285716 11.06670578 16.72178898 12.13897219 18.2109375 13.2109375 C21.95842211 15.90994554 25.70136143 18.61524238 29.44482422 21.31982422 C30.93960303 22.39926911 32.4343947 23.47869618 33.92919922 24.55810547 C36.98200539 26.76283625 40.03399601 28.96869005 43.08544922 31.17529297 C49.86023164 36.07327756 56.63740524 40.9672651 63.44482422 45.81982422 C70.2407879 50.66421761 77.00687042 55.54950056 83.76904297 60.44091797 C87.72803236 63.3042123 91.69498489 66.15628473 95.66333008 69.0065918 C98.64059179 71.15092726 101.60675981 73.31033408 104.57275391 75.47021484 C106.1430025 76.60223548 107.73312328 77.70662086 109.32763672 78.80419922 C116.86824153 84.17208739 122.1113724 91.82562729 124.44482422 100.81982422 C124.7625924 103.74179361 124.82567572 106.6320603 124.81982422 109.56982422 C124.81893799 110.36606201 124.81805176 111.1622998 124.81713867 111.98266602 C124.67599789 119.0131962 123.37003055 125.14269994 118.90332031 130.75756836 C116.70352415 135.37625656 116.95725369 139.80240273 116.94091797 144.85888672 C116.92594017 146.47384537 116.92594017 146.47384537 116.91065979 148.12142944 C116.89548653 150.39927333 116.88843375 152.67718375 116.88891602 154.95507812 C116.88238539 158.41243949 116.82797713 161.86688086 116.77099609 165.32373047 C116.76218712 167.54377281 116.75623753 169.76382869 116.75341797 171.98388672 C116.72108315 173.51573105 116.72108315 173.51573105 116.68809509 175.07852173 C116.7531713 182.01678885 118.40356514 186.56225316 122.04981995 192.46347046 C126.32537782 199.68547478 125.94811649 209.06014358 124.24560547 217.02685547 C123.44482422 219.81982422 123.44482422 219.81982422 122.45947266 221.77416992 C121.33866752 224.22450985 120.67799182 226.12712307 120.44482422 228.81982422 C122.00391622 232.8134301 124.47667123 235.994621 127.06982422 239.38232422 C127.76172852 240.33743896 128.45363281 241.29255371 129.16650391 242.27661133 C130.57165544 244.21607741 131.98830156 246.14726926 133.41650391 248.06982422 C136.272823 251.94242633 138.98643258 255.90564253 141.69482422 259.88232422 C142.1352002 260.5179126 142.57557617 261.15350098 143.02929688 261.80834961 C144.17988894 263.4705418 145.31314662 265.14469712 146.44482422 266.81982422 C147.05841797 267.64353516 147.67201172 268.46724609 148.30419922 269.31591797 C149.99837948 273.03499176 149.58429694 274.88823925 148.44482422 278.81982422 C146.47820812 282.27290523 144.17850025 285.43818286 141.81982422 288.63232422 C141.21525391 289.47085937 140.61068359 290.30939453 139.98779297 291.17333984 C138.76799552 292.8651911 137.54240987 294.5528844 136.31103516 296.23632812 C133.77801289 299.74292698 131.34210821 303.31425563 128.91210938 306.89282227 C127.44482422 308.81982422 127.44482422 308.81982422 125.44482422 309.81982422 C118.27494974 310.27505434 118.27494974 310.27505434 115.50732422 308.75732422 C113.80885978 305.66012436 112.93847832 303.31296995 113.44482422 299.81982422 C115.34308447 295.84956464 117.87701714 292.3827676 120.44482422 288.81982422 C121.34422275 287.54706529 122.24261658 286.27359594 123.14013672 284.99951172 C125.55209533 281.58938319 127.99191322 278.20059692 130.44482422 274.81982422 C125.5220585 266.88963507 120.30890908 259.19052501 114.99560547 251.51904297 C112.77441939 248.31010785 110.59913507 245.07399401 108.44482422 241.81982422 C107.64044922 242.08794922 106.83607422 242.35607422 106.00732422 242.63232422 C104.83169922 243.02419922 103.65607422 243.41607422 102.44482422 243.81982422 C101.82607422 244.08408203 101.20732422 244.34833984 100.56982422 244.62060547 C90.19503705 248.76659049 79.21898262 247.73133565 68.93310547 243.89013672 C66.72391437 242.93987242 64.57805753 241.92890571 62.44482422 240.81982422 C62.20892578 241.51076172 61.97302734 242.20169922 61.72998047 242.91357422 C60.19450167 246.38590318 58.12411208 249.28353789 55.88232422 252.31982422 C54.99019435 253.55795938 54.0982723 254.7962443 53.20654297 256.03466797 C51.39949493 258.52456365 49.5652694 260.99133262 47.71435547 263.44873047 C46.87417921 264.59301765 46.03432212 265.73753927 45.19482422 266.88232422 C44.42654297 267.90455078 43.65826172 268.92677734 42.86669922 269.97998047 C41.1087852 272.68188563 41.1087852 272.68188563 42.15234375 275.19506836 C43.47688916 277.88494136 44.96421642 280.21419295 46.70263672 282.65576172 C47.32783203 283.55552734 47.95302734 284.45529297 48.59716797 285.38232422 C49.91119026 287.25578174 51.23412246 289.12302176 52.56591797 290.98388672 C58.52959772 299.62690086 58.52959772 299.62690086 57.44482422 305.81982422 C55.94482422 308.25732422 55.94482422 308.25732422 53.44482422 309.81982422 C48.50973187 310.69540512 48.50973187 310.69540512 45.44482422 309.81982422 C40.26898348 305.41285837 36.58073457 298.85036029 32.81982422 293.25732422 C31.98064453 292.02079102 31.98064453 292.02079102 31.12451172 290.75927734 C30.04217875 289.16258095 28.9660466 287.56165891 27.89697266 285.95605469 C26.67106867 284.15264852 25.36677163 282.40290493 24.04638672 280.66748047 C21.99646817 277.02262529 21.86013643 274.94918174 22.44482422 270.81982422 C23.68476273 268.41148211 24.86655956 266.47877983 26.44482422 264.31982422 C26.87545166 263.70252441 27.3060791 263.08522461 27.74975586 262.44921875 C28.73253831 261.04350306 29.72273203 259.64295095 30.71875 258.24658203 C33.41783788 254.45182481 36.06773414 250.62305626 38.72412109 246.79833984 C40.14482969 244.75534802 41.56921664 242.71490843 42.99755859 240.67724609 C43.65949219 239.73171875 44.32142578 238.78619141 45.00341797 237.81201172 C45.88984985 236.5491333 45.88984985 236.5491333 46.79418945 235.26074219 C48.4465589 232.81725902 50.05039158 230.42060576 51.44482422 227.81982422 C50.98767642 225.43978426 50.98767642 225.43978426 49.69482422 223.25732422 C45.54468689 215.27522675 45.09856814 206.44898825 47.19873047 197.66748047 C48.56871622 193.75093296 49.8368762 190.56172442 52.48583984 187.32910156 C55.41136096 182.95604745 55.04777182 178.27310826 55.05419922 173.17138672 C55.07073547 172.15885834 55.08727173 171.14632996 55.10430908 170.1031189 C55.15271691 166.88362518 55.17414453 163.6646036 55.19482422 160.44482422 C55.22298985 158.25599848 55.25291811 156.06719466 55.28466797 153.87841797 C55.3584737 148.52563889 55.41015853 143.1729922 55.44482422 137.81982422 C54.9061673 137.64835373 54.36751038 137.47688324 53.81253052 137.30021667 C48.05025566 135.4278202 42.46317591 133.26853247 36.87451172 130.93310547 C35.97177521 130.55891983 35.0690387 130.18473419 34.13894653 129.79920959 C32.2033979 128.99654045 30.26842532 128.19248101 28.33398438 127.387146 C24.23180753 125.67937316 20.12684359 123.97834856 16.02203369 122.2769165 C13.91784562 121.40466324 11.81380176 120.53206202 9.7098999 119.65911865 C-1.9788924 114.81024456 -13.68384152 110.00080863 -25.39892578 105.21582031 C-26.9484493 104.58262805 -28.49792954 103.94932988 -30.04736328 103.31591797 C-31.15346954 102.86375916 -31.15346954 102.86375916 -32.28192139 102.40246582 C-36.76521434 100.56550406 -41.23117231 98.69278713 -45.68798828 96.79248047 C-46.72181641 96.35564941 -47.75564453 95.91881836 -48.82080078 95.46875 C-50.6458057 94.69555376 -52.46663087 93.91236447 -54.28173828 93.11621094 C-57.40232918 91.8010119 -59.82969528 90.82616953 -63.23486328 90.79638672 C-66.49519214 92.23444423 -68.94170473 94.39303996 -71.55517578 96.75732422 C-72.71320071 97.77148181 -73.87341394 98.78314534 -75.03564453 99.79248047 C-75.62265137 100.30311035 -76.2096582 100.81374023 -76.81445312 101.33984375 C-79.93388467 103.99201682 -83.20485015 106.43425418 -86.46728516 108.9074707 C-90.90530233 112.28821888 -95.23773615 115.78676654 -99.55517578 119.31982422 C-105.36125846 124.06856475 -111.24624546 128.67836249 -117.21142578 133.22607422 C-121.05404459 136.18193484 -124.80268888 139.25090229 -128.55517578 142.31982422 C-134.36141451 147.06837999 -140.24623755 151.67835646 -146.21142578 156.22607422 C-150.05404734 159.18193695 -153.80262684 162.2509741 -157.55517578 165.31982422 C-164.45400925 170.95990291 -171.4699727 176.416176 -178.55517578 181.81982422 C-181.56015019 184.14679605 -184.55891001 186.48165299 -187.55517578 188.81982422 C-186.26637492 192.51951625 -184.81176599 194.92880955 -182.11767578 197.75732422 C-178.62341368 201.5606456 -175.40105767 205.48971161 -172.24267578 209.56982422 C-168.61407766 214.24541164 -164.9065719 218.82595613 -161.05517578 223.31982422 C-156.78624135 228.30391323 -152.70634488 233.40795035 -148.68017578 238.58935547 C-145.5636966 242.58234442 -142.34983957 246.47292985 -139.05517578 250.31982422 C-134.78914934 255.30089486 -130.70902869 260.39959777 -126.68896484 265.58056641 C-123.49901582 269.67217125 -120.18744918 273.63643442 -116.80517578 277.56982422 C-105.24542529 291.11495072 -97.13356065 304.4847219 -97.24267578 322.69482422 C-97.24323975 323.5767041 -97.24380371 324.45858398 -97.24438477 325.3671875 C-97.32202543 330.85480918 -97.81336089 335.64562586 -99.99658203 340.74951172 C-100.837934 343.86780921 -100.46370475 345.70166307 -99.55517578 348.81982422 C-97.85143234 351.73305494 -95.84553327 354.38528208 -93.80517578 357.06982422 C-92.61608805 358.67377916 -91.42729431 360.27795209 -90.23876953 361.88232422 C-89.32200439 363.10822266 -89.32200439 363.10822266 -88.38671875 364.35888672 C-86.06080038 367.48408762 -83.77649404 370.63758205 -81.50634766 373.8034668 C-80.41205239 375.31692672 -79.3025147 376.81947936 -78.17822266 378.31079102 C-75.58341539 381.7826892 -73.35669943 385.02040147 -71.67626953 389.02685547 C-69.69366448 393.34890248 -67.96258687 396.66872205 -63.55517578 398.81982422 C-55.22846718 400.33017466 -46.8238212 400.02897113 -38.39892578 399.80029297 C-28.01919278 399.51884965 -20.25151787 401.75243052 -12.55517578 408.81982422 C-5.1387702 416.13532632 -2.49476073 423.87594878 -2.3649292 434.20422363 C-2.35855438 435.42160217 -2.35855438 435.42160217 -2.35205078 436.66357422 C-2.34635071 437.51028687 -2.34065063 438.35699951 -2.33477783 439.22937012 C-2.32535875 441.01455445 -2.31880618 442.79975594 -2.31494141 444.58496094 C-2.30520839 447.31069135 -2.27414529 450.03567587 -2.24267578 452.76123047 C-2.23614753 454.49950726 -2.23089636 456.23778942 -2.22705078 457.97607422 C-2.21470398 458.78765991 -2.20235718 459.59924561 -2.18963623 460.4354248 C-2.20776599 465.05255159 -2.55944152 468.06740724 -5.55517578 471.81982422 C-7.97304729 473.02875997 -9.49236196 472.9473071 -12.1941967 472.95125198 C-13.17802956 472.95509313 -14.16186241 472.95893427 -15.17550838 472.96289182 C-16.26420164 472.96202533 -17.3528949 472.96115885 -18.47457886 472.96026611 C-20.20025139 472.9647228 -20.20025139 472.9647228 -21.96078598 472.96926951 C-25.16379722 472.97646465 -28.36677584 472.97912998 -31.56979394 472.97986698 C-35.02045308 472.98171472 -38.47110053 472.9892606 -41.92175293 472.9960022 C-49.47124747 473.00959725 -57.02073671 473.01561198 -64.57024145 473.02001286 C-69.28166282 473.02277315 -73.99308213 473.02701009 -78.70450211 473.03151703 C-91.7419643 473.04371094 -104.77942485 473.0540102 -117.81689262 473.05739212 C-119.06907745 473.05772147 -119.06907745 473.05772147 -120.34655894 473.05805747 C-121.18337623 473.05827575 -122.02019353 473.05849403 -122.88236892 473.05871892 C-124.5781548 473.05916239 -126.27394068 473.05960895 -127.96972656 473.06005859 C-129.23148624 473.06039074 -129.23148624 473.06039074 -130.51873602 473.06072959 C-144.15383558 473.06467901 -157.78888174 473.08213684 -171.42396067 473.10541812 C-185.41359896 473.12911255 -199.40321043 473.14159309 -213.39286911 473.14276004 C-221.25132092 473.14367785 -229.10970315 473.14945668 -236.96813583 473.16757965 C-243.65880874 473.18295489 -250.34939058 473.18811639 -257.04007779 473.17984155 C-260.45525525 473.17592592 -263.87024915 473.17690876 -267.28540421 473.1908989 C-270.98436479 473.20351357 -274.68284893 473.19779854 -278.38180542 473.18731689 C-280.00815314 473.1994015 -280.00815314 473.1994015 -281.66735637 473.21173024 C-282.65640472 473.2051404 -283.64545307 473.19855055 -284.66447258 473.19176102 C-285.51851862 473.19235811 -286.37256466 473.19295519 -287.25249088 473.19357038 C-290.10832749 472.7300428 -291.46709234 471.79787505 -293.55517578 469.81982422 C-294.83385083 465.98379907 -294.73722038 462.34622521 -294.75830078 458.34716797 C-294.76400085 457.5094838 -294.76970093 456.67179962 -294.77557373 455.80873108 C-294.78502175 454.03257508 -294.79155693 452.25640156 -294.79541016 450.48022461 C-294.8050526 447.79166986 -294.83605077 445.10390064 -294.86767578 442.41552734 C-294.95178992 428.79451275 -293.93919613 418.65054968 -284.36767578 408.19482422 C-279.37907808 403.34569269 -273.37968012 400.87398226 -266.55517578 399.81982422 C-264.13688723 399.8771123 -261.71962962 399.98853456 -259.30517578 400.13623047 C-244.64683362 401.22942035 -244.64683362 401.22942035 -230.94775391 397.30029297 C-226.81681333 393.34265039 -224.35472927 388.49353078 -221.88867188 383.38769531 C-219.60521036 378.99050597 -216.58723508 375.14603879 -213.61767578 371.19482422 C-212.09299655 369.08672182 -210.57609264 366.97356214 -209.06738281 364.85400391 C-208.01790217 363.44227114 -206.91501455 362.06931456 -205.7734375 360.73095703 C-205.20512207 360.05129883 -204.63680664 359.37164062 -204.05126953 358.67138672 C-203.525896 358.07406738 -203.00052246 357.47674805 -202.45922852 356.86132812 C-201.28031411 354.74577991 -201.28031411 354.74577991 -202.18164062 352.02026367 C-203.67862679 348.53217414 -205.29982966 345.13460553 -207.03564453 341.76123047 C-207.75835433 340.33605148 -208.48015058 338.91040897 -209.20117188 337.484375 C-209.58384216 336.72876282 -209.96651245 335.97315063 -210.36077881 335.19464111 C-212.45420479 331.03228681 -214.49823784 326.84586619 -216.54345703 322.65966797 C-216.97289108 321.78121216 -217.40232513 320.90275635 -217.84477234 319.99768066 C-219.1866003 317.25131425 -220.52726005 314.50438015 -221.86767578 311.75732422 C-222.33249359 310.80529114 -222.7973114 309.85325806 -223.2762146 308.87237549 C-228.74854386 297.66245463 -234.21151092 286.4491183 -239.56152344 275.18017578 C-242.2623241 269.4975788 -245.00497623 263.83655265 -247.76611328 258.18310547 C-248.51248604 256.65268628 -249.25882383 255.12225003 -250.00512695 253.59179688 C-251.11741807 251.31107224 -252.23103298 249.03104659 -253.34902954 246.75311279 C-254.38340477 244.64549167 -255.41306661 242.5356262 -256.44189453 240.42529297 C-256.75689911 239.78690994 -257.07190369 239.14852692 -257.39645386 238.49079895 C-259.55517578 234.04712675 -259.55517578 234.04712675 -259.55517578 231.81982422 C-260.37308594 231.61679687 -260.37308594 231.61679687 -261.20751953 231.40966797 C-267.85652307 229.51157636 -272.38855834 226.33942511 -277.55517578 221.81982422 C-278.16232422 221.34158203 -278.76947266 220.86333984 -279.39501953 220.37060547 C-288.27101122 212.70223169 -293.70110386 199.3023467 -294.55517578 187.81982422 C-294.65830078 186.56169922 -294.76142578 185.30357422 -294.86767578 184.00732422 C-294.36063743 169.42251512 -288.94895856 156.49963235 -278.91064453 146.00732422 C-271.08101864 138.73602985 -262.38102822 134.37656823 -251.86767578 132.75732422 C-243.56721002 131.09367245 -238.60929689 126.85498077 -232.40429688 121.42285156 C-229.16871218 118.61788072 -225.82281678 115.94861211 -222.49267578 113.25732422 C-221.81736816 112.70641113 -221.14206055 112.15549805 -220.44628906 111.58789062 C-215.33477356 107.42034366 -210.12834735 103.40023457 -204.88330078 99.40185547 C-201.12813123 96.5133502 -197.4693185 93.50986709 -193.80517578 90.50732422 C-188.32461999 86.01831852 -182.76752149 81.65609205 -177.11767578 77.38232422 C-170.48786116 72.36430337 -164.04472738 67.15679388 -157.65136719 61.84179688 C-152.48197271 57.55372608 -147.21070235 53.44368899 -141.86376953 49.37841797 C-138.02898222 46.43907506 -134.29496763 43.37848407 -130.55517578 40.31982422 C-125.49043949 36.1850846 -120.40692144 32.07991692 -115.24267578 28.06982422 C-114.21529297 27.27060547 -113.18791016 26.47138672 -112.12939453 25.64794922 C-109.55517578 23.81982422 -109.55517578 23.81982422 -106.55517578 22.81982422 C-105.77458885 20.42567488 -105.77458885 20.42567488 -105.30517578 17.50732422 C-103.68640639 10.388129 -100.6045357 4.84555287 -96.55517578 -1.18017578 C-96.11560547 -1.83759766 -95.67603516 -2.49501953 -95.22314453 -3.17236328 C-87.44705699 -13.36820012 -73.90663573 -20.25779343 -61.60986328 -22.78564453 C-36.18424878 -26.06951546 -19.34556653 -14.48735089 0 0 Z M-81.95751953 6.70654297 C-88.42960166 15.26741444 -92.71809963 25.99712967 -91.55517578 36.81982422 C-89.8190361 48.07316597 -85.00386449 58.04894187 -75.89746094 65.17382812 C-65.82239175 72.25389029 -53.39658145 76.2740588 -42.05575562 80.84674072 C-36.5646055 83.0610303 -31.07994034 85.29129899 -25.59423828 87.51904297 C-24.48624374 87.96848267 -23.37824921 88.41792236 -22.23667908 88.88098145 C-12.04988094 93.01607205 -1.89286815 97.22085527 8.25732422 101.44482422 C21.95747186 107.1398713 35.66876098 112.80714349 49.39706421 118.434021 C51.31829697 119.22170777 53.23922511 120.01013801 55.15982056 120.79937744 C75.07229773 130.73918499 75.07229773 130.73918499 96.06982422 130.25732422 C101.98376056 127.38717549 105.80502569 122.78252704 108.44482422 116.81982422 C109.86776264 110.36187293 109.16650349 105.83559944 106.44482422 99.81982422 C106.09548828 99.04380859 105.74615234 98.26779297 105.38623047 97.46826172 C102.46284554 93.48022353 98.63825152 90.97663799 94.63232422 88.13232422 C93.77646729 87.51365479 92.92061035 86.89498535 92.03881836 86.25756836 C89.51399637 84.43569989 86.98068204 82.62628762 84.44482422 80.81982422 C83.19972203 79.92702795 81.95489392 79.03384922 80.71044922 78.14013672 C78.48359152 76.54386223 76.25267685 74.95347581 74.01904297 73.36669922 C69.89592847 70.43439688 65.79517227 67.47134145 61.69482422 64.50732422 C60.9367749 63.95939209 60.17872559 63.41145996 59.39770508 62.84692383 C57.85149325 61.72909969 56.30535108 60.61117918 54.75927734 59.49316406 C50.98889405 56.76719285 47.21680903 54.04357873 43.44482422 51.31982422 C38.89706844 48.03588461 34.34973047 44.75137377 29.80419922 41.46435547 C22.47315831 36.16421103 15.13655212 30.87279844 7.76757812 25.62548828 C3.78746792 22.78824969 -0.17245208 19.92413837 -4.12744141 17.05200195 C-7.92821374 14.29611964 -11.74093767 11.55702324 -15.55517578 8.81982422 C-16.28124023 8.29614258 -17.00730469 7.77246094 -17.75537109 7.23291016 C-38.47377527 -7.65462222 -61.9614918 -14.61309889 -81.95751953 6.70654297 Z M-113.05517578 47.50732422 C-118.17332769 51.90138537 -123.42079857 56.06985998 -128.80517578 60.13232422 C-135.50053869 65.18942781 -142.00676015 70.43367829 -148.45825195 75.79736328 C-153.62801314 80.08544585 -158.89941541 84.19578169 -164.24658203 88.26123047 C-168.08135505 91.20056242 -171.81569087 94.26080949 -175.55517578 97.31982422 C-181.3585459 102.06615929 -187.23958782 106.67494704 -193.20361328 111.21826172 C-197.09592914 114.21181071 -200.88331309 117.3317715 -204.68017578 120.44482422 C-210.81738864 125.47319438 -217.0565983 130.26255908 -223.55517578 134.81982422 C-220.59816957 137.12739448 -217.53122417 139.03684703 -214.30517578 140.94482422 C-202.82586625 148.26651432 -197.41016174 158.38743026 -192.55517578 170.81982422 C-187.75902815 168.23038292 -183.79004313 165.5070746 -179.68017578 161.88232422 C-174.69619964 157.55618013 -169.57450955 153.48012931 -164.30517578 149.50732422 C-157.60962615 144.45048199 -151.10357833 139.20595926 -144.65209961 133.84228516 C-139.48233842 129.55420259 -134.21093615 125.44386675 -128.86376953 121.37841797 C-125.02899651 118.43908602 -121.29466069 115.37883895 -117.55517578 112.31982422 C-111.76555991 107.58473817 -105.89819862 102.98695861 -99.94970703 98.45263672 C-93.36852065 93.39018565 -86.9781707 88.08024882 -80.55517578 82.81982422 C-81.68780959 79.42192281 -82.26301271 79.1053815 -85.11767578 77.19482422 C-96.89497698 68.59886914 -103.03824164 56.76415958 -106.55517578 42.81982422 C-108.83980711 42.81982422 -111.33242886 46.0104655 -113.05517578 47.50732422 Z M70.44482422 144.81982422 C70.44482422 153.39982422 70.44482422 161.97982422 70.44482422 170.81982422 C72.42482422 170.48982422 74.40482422 170.15982422 76.44482422 169.81982422 C77.88060859 169.73682185 79.31914463 169.6893816 80.75732422 169.68701172 C81.52302734 169.68572266 82.28873047 169.68443359 83.07763672 169.68310547 C83.85880859 169.68697266 84.63998047 169.69083984 85.44482422 169.69482422 C86.22599609 169.69095703 87.00716797 169.68708984 87.81201172 169.68310547 C88.57771484 169.68439453 89.34341797 169.68568359 90.13232422 169.68701172 C91.1590625 169.68870361 91.1590625 169.68870361 92.20654297 169.69042969 C94.97370156 169.8503985 97.71075864 170.36414662 100.44482422 170.81982422 C100.44482422 162.56982422 100.44482422 154.31982422 100.44482422 145.81982422 C98.13482422 146.14982422 95.82482422 146.47982422 93.44482422 146.81982422 C91.53029967 146.92988379 89.61246391 146.99408085 87.69482422 147.00732422 C86.31037109 147.02859375 86.31037109 147.02859375 84.89794922 147.05029297 C80.03403033 146.7256649 75.24093425 145.69184422 70.44482422 144.81982422 Z M-269.86767578 160.19482422 C-275.95181606 167.86320047 -279.38890597 176.98180798 -278.55517578 186.81982422 C-276.4586026 198.39502238 -271.11244327 206.92928493 -261.55517578 213.81982422 C-253.11316643 218.86968072 -245.36877224 219.70171481 -235.55517578 218.81982422 C-226.29318939 216.45176557 -218.43031841 211.42358439 -212.96142578 203.51513672 C-207.40833125 193.92636303 -205.73217969 183.87593868 -208.20751953 172.93701172 C-211.77068349 163.18036533 -218.31252268 155.547214 -227.55517578 150.81982422 C-242.71071261 144.42835182 -258.76163158 148.00322682 -269.86767578 160.19482422 Z M68.13232422 192.13232422 C63.77234928 197.73970343 61.79264149 203.09451193 62.03076172 210.19482422 C62.97230539 216.1638558 65.80383972 221.70264996 70.31982422 225.75732422 C77.30564705 230.36796729 83.16127437 231.85975039 91.44482422 230.81982422 C98.7238405 228.79999248 103.92263153 223.24652976 107.59326172 216.80419922 C110.18345368 210.76833906 109.76896867 204.80449619 107.44482422 198.81982422 C104.51892657 192.46071603 100.71815406 188.87774441 94.44482422 185.81982422 C84.61256349 182.54240397 75.10134618 184.56693119 68.13232422 192.13232422 Z M-196.55517578 206.81982422 C-197.74453981 208.47037022 -198.90571418 210.14124538 -200.05517578 211.81982422 C-210.25270553 225.90471017 -222.69179353 231.9759994 -239.55517578 234.81982422 C-238.95886843 238.51199486 -237.92428069 241.4274747 -236.21923828 244.74951172 C-235.73793457 245.69721436 -235.25663086 246.64491699 -234.76074219 247.62133789 C-233.97836182 249.14271362 -233.97836182 249.14271362 -233.18017578 250.69482422 C-232.07436782 252.87498209 -230.97023879 255.05599225 -229.86767578 257.23779297 C-229.30951172 258.34171387 -228.75134766 259.44563477 -228.17626953 260.58300781 C-225.78273669 265.36214311 -223.47391026 270.17966917 -221.18017578 275.00732422 C-220.27532111 276.90971232 -219.37037079 278.81205494 -218.46533203 280.71435547 C-217.99885254 281.69484863 -217.53237305 282.6753418 -217.05175781 283.68554688 C-213.67287177 290.76191539 -210.25287991 297.81863622 -206.83496094 304.8762207 C-203.93216721 310.87367036 -201.04817132 316.87850824 -198.20751953 322.90576172 C-197.67570068 324.02934082 -197.14388184 325.15291992 -196.59594727 326.31054688 C-195.60392508 328.40902512 -194.61732083 330.51007758 -193.63745117 332.61425781 C-186.49803884 347.68052707 -178.83125729 356.04579252 -163.18017578 362.13232422 C-150.9896955 364.44431186 -140.34746172 362.25343549 -129.94189453 355.60498047 C-121.55880041 349.33481024 -115.47339873 340.2165926 -113.55517578 329.81982422 C-112.45059493 314.59109478 -115.97662132 304.64054307 -125.55517578 292.81982422 C-126.05871582 292.19833496 -126.56225586 291.5768457 -127.08105469 290.93652344 C-129.99769616 287.353517 -132.93785973 283.79066197 -135.89111328 280.23779297 C-139.41440909 275.99844843 -142.89706503 271.72734569 -146.36767578 267.44482422 C-147.4470282 266.11403449 -148.52645301 264.78330347 -149.60595703 263.45263672 C-150.11078613 262.8303418 -150.61561523 262.20804687 -151.13574219 261.56689453 C-153.1025991 259.14604347 -155.0782546 256.73246027 -157.05517578 254.31982422 C-161.30406358 249.13368176 -165.53080469 243.92972475 -169.75610352 238.72436523 C-172.8665782 234.89367539 -175.9861529 231.07084845 -179.11767578 227.25732422 C-181.68550126 224.13002839 -184.22510051 220.98287338 -186.73876953 217.81201172 C-187.28782959 217.12051025 -187.83688965 216.42900879 -188.40258789 215.71655273 C-189.49074272 214.34418196 -190.57626464 212.96971877 -191.65893555 211.59301758 C-192.93518524 209.98385136 -194.24223181 208.3991935 -195.55517578 206.81982422 C-195.88517578 206.81982422 -196.21517578 206.81982422 -196.55517578 206.81982422 Z M-112.55517578 360.81982422 C-113.32087891 361.58166016 -113.32087891 361.58166016 -114.10205078 362.35888672 C-125.797795 373.43251688 -139.6072402 378.35287448 -155.62353516 378.17138672 C-166.47411906 377.7975867 -179.62109027 374.75390973 -187.55517578 366.81982422 C-190.21086483 367.00505828 -191.26871682 367.50240929 -193.05981445 369.48706055 C-193.52621338 370.20144287 -193.9926123 370.9158252 -194.47314453 371.65185547 C-195.00141846 372.44543457 -195.52969238 373.23901367 -196.07397461 374.05664062 C-196.89998169 375.331604 -196.89998169 375.331604 -197.74267578 376.63232422 C-198.89410004 378.36687391 -200.04775238 380.09994659 -201.20361328 381.83154297 C-201.76918945 382.68151855 -202.33476562 383.53149414 -202.91748047 384.40722656 C-205.79847632 388.65141277 -208.9112178 392.70503488 -212.04345703 396.76513672 C-213.6539465 398.52892257 -213.6539465 398.52892257 -213.55517578 399.81982422 C-170.65517578 399.81982422 -127.75517578 399.81982422 -83.55517578 399.81982422 C-87.73950013 393.24445738 -91.77724749 386.95650246 -96.49267578 380.81982422 C-97.53120915 379.45452642 -98.56896634 378.08863786 -99.60595703 376.72216797 C-100.10562988 376.06458496 -100.60530273 375.40700195 -101.12011719 374.72949219 C-103.8288301 371.12494091 -106.43035857 367.44377433 -109.03173828 363.76123047 C-110.41736749 361.71057463 -110.41736749 361.71057463 -112.55517578 360.81982422 Z M-276.55517578 423.81982422 C-279.97820073 433.03480651 -279.97820073 433.03480651 -278.55517578 456.81982422 C-192.75517578 456.81982422 -106.95517578 456.81982422 -18.55517578 456.81982422 C-16.5427146 432.35403459 -16.5427146 432.35403459 -22.55517578 421.81982422 C-28.47505247 416.05173924 -34.03535495 415.52540757 -41.91696167 415.55912781 C-42.86367898 415.55530226 -43.81039629 415.55147671 -44.78580201 415.54753524 C-47.9601223 415.53721123 -51.13426151 415.5411963 -54.30859375 415.54516602 C-56.58366056 415.5408192 -58.8587259 415.53563616 -61.13378906 415.52967834 C-67.31560048 415.51627348 -73.49735082 415.51571137 -79.67917395 415.51824164 C-84.83831149 415.5193104 -89.99743662 415.51443041 -95.15657151 415.50963622 C-108.02349736 415.49790087 -120.8903793 415.49876905 -133.75730576 415.50519303 C-144.92645147 415.51036126 -156.09550995 415.49910918 -167.26463841 415.48009481 C-178.73785902 415.46071278 -190.21102229 415.45275247 -201.68426239 415.45621806 C-208.12368509 415.4580322 -214.5630279 415.45538169 -221.00243759 415.44150352 C-227.05826889 415.42894078 -233.11392546 415.43085472 -239.16975403 415.44391441 C-241.39214766 415.44628316 -243.61455353 415.44353488 -245.83693314 415.43529129 C-248.87129965 415.42484755 -251.90507732 415.4329058 -254.93942261 415.44560242 C-255.81832212 415.43822813 -256.69722164 415.43085385 -257.60275447 415.4232561 C-265.56052978 415.493278 -271.33773542 417.40982606 -276.55517578 423.81982422 Z "
        fill="#00b894" transform="translate(328.55517578125,31.18017578125)" />
    <path
        d="M0 0 C5.8009871 4.12422063 9.2214421 8.14938756 11.6875 14.875 C12.87574041 22.95503476 11.62798543 29.92209158 7.1875 36.8125 C1.65827839 42.34172161 -4.10051658 45.03908545 -11.875 45.3125 C-18.96303416 45.15261953 -24.92509175 43.07490825 -30 38 C-35.19067964 30.86832967 -36.93343986 24.84174975 -36 16 C-34.30503307 10.15973352 -31.66484525 5.96511847 -27 2 C-26.38125 1.443125 -25.7625 0.88625 -25.125 0.3125 C-17.31713487 -4.51000493 -7.88389561 -4.33080533 0 0 Z M-16.6875 14.625 C-19.48271977 17.49576625 -19.91729413 19.03011806 -20 23 C-19.19470612 25.63550724 -18.44657038 26.66507222 -16.25 28.3125 C-13.07357864 29.28307319 -11.16398262 28.98874457 -8 28 C-5.4285061 25.9315113 -5.4285061 25.9315113 -4 23 C-3.75322994 19.89706707 -3.75322994 19.89706707 -5 17 C-7.20488259 14.53583866 -7.20488259 14.53583866 -10 13 C-13.95294303 12.65505377 -13.95294303 12.65505377 -16.6875 14.625 Z "
        fill="#00b894" transform="translate(289,41)" />
    <path
        d="M0 0 C5.24355405 3.87201945 8.88723986 9.21153784 10.1953125 15.62109375 C11.05455057 22.56212631 9.76920296 28.58828701 6.1953125 34.62109375 C0.86579019 40.65157619 -4.56809689 43.74984378 -12.625 44.5859375 C-19.21569743 44.69223907 -24.69827759 42.79906549 -29.8046875 38.62109375 C-34.85681119 33.33398757 -37.8956143 28.19060284 -38.2421875 20.80859375 C-37.99393455 14.27457612 -36.30540175 8.49957548 -31.96875 3.5078125 C-22.87898659 -4.90283065 -10.85218296 -6.15887554 0 0 Z M-20.8046875 15.62109375 C-22.02187241 19.72909283 -22.27069931 21.70848729 -20.3046875 25.55859375 C-17.88488471 27.91969554 -17.88488471 27.91969554 -14.3046875 28.12109375 C-10.68442788 27.6039138 -9.18302175 27.36532558 -6.8046875 24.62109375 C-5.61160588 20.96231013 -5.47801006 19.32111683 -7.1171875 15.80859375 C-8.62047338 13.53193749 -8.62047338 13.53193749 -10.8046875 12.62109375 C-15.13380131 12.24464907 -17.85582639 12.23536433 -20.8046875 15.62109375 Z "
        fill="#00b894" transform="translate(99.8046875,194.37890625)" />
    <path
        d="M0 0 C5.25495606 3.18687658 9.2224526 7.87816813 12 13.3125 C13.46938741 21.63902865 13.42601785 29.30632874 8.5625 36.5 C3.88271176 41.60966441 -0.63826069 45.01755691 -7.63671875 45.90625 C-16.13518665 46.13465227 -21.89917689 45.13263509 -28.4375 39.5 C-33.26099029 34.50546395 -35.11110744 29.0250396 -35.75 22.125 C-35.10784325 14.67598175 -32.92707332 8.75089621 -27.4375 3.5 C-19.76735204 -2.6819103 -9.12233997 -3.95774672 0 0 Z M-16.8125 16.1875 C-18.63025513 18.77430537 -19.2798583 20.34716608 -19.4375 23.5 C-18.29734646 26.82544781 -17.47067287 27.47788475 -14.4375 29.5 C-10.38269599 30.11703539 -8.89380023 29.82038101 -5.5 27.4375 C-3.09032745 24.60375271 -3.09032745 24.60375271 -3.4375 20.875 C-4.46622154 16.89228236 -4.46622154 16.89228236 -7.4375 14.5 C-11.3793958 13.99830417 -13.52638261 13.85262712 -16.8125 16.1875 Z "
        fill="#00b894" transform="translate(185.4375,331.5)" />
</svg>